<svg width="28" height="30" viewBox="0 0 28 30" fill="none" xmlns="http://www.w3.org/2000/svg">
  <defs>
    <linearGradient id="joinGradient" x1="0%" y1="0%" x2="100%" y2="100%">
      <stop offset="0%" style="stop-color:#F97316;stop-opacity:1" />
      <stop offset="100%" style="stop-color:#EA580C;stop-opacity:1" />
    </linearGradient>
  </defs>
  <!-- Person silhouette -->
  <circle cx="14" cy="9.5" r="4.5" fill="url(#joinGradient)"/>
  <path d="M14 16C8.5 16 4 19.5 4 24V26.5C4 27.3 4.7 28 5.5 28H22.5C23.3 28 24 27.3 24 26.5V24C24 19.5 19.5 16 14 16Z" fill="url(#joinGradient)"/>
  
  <!-- Plus icon with modern styling -->
  <g transform="translate(20, 20)">
    <circle cx="4" cy="4" r="3.5" fill="#0A0A0A" stroke="url(#joinGradient)" stroke-width="1"/>
    <rect x="3" y="1.5" width="2" height="5" rx="1" fill="url(#joinGradient)"/>
    <rect x="1.5" y="3" width="5" height="2" rx="1" fill="url(#joinGradient)"/>
  </g>
  
  <!-- Connection indicator -->
  <circle cx="20" cy="12" r="1.5" fill="#F97316" opacity="0.8"/>
  <circle cx="22" cy="14" r="1" fill="#F97316" opacity="0.6"/>
  <circle cx="18" cy="14" r="1" fill="#F97316" opacity="0.6"/>
</svg>
