<svg width="32" height="34" viewBox="0 0 32 34" fill="none" xmlns="http://www.w3.org/2000/svg">
  <defs>
    <linearGradient id="scheduleGradient" x1="0%" y1="0%" x2="100%" y2="100%">
      <stop offset="0%" style="stop-color:#F97316;stop-opacity:1" />
      <stop offset="100%" style="stop-color:#EA580C;stop-opacity:1" />
    </linearGradient>
  </defs>
  <!-- Calendar body -->
  <rect x="2" y="6" width="28" height="26" rx="4" fill="#0A0A0A" stroke="url(#scheduleGradient)" stroke-width="2"/>
  <!-- Calendar header -->
  <rect x="2" y="6" width="28" height="8" rx="4" fill="url(#scheduleGradient)"/>
  <rect x="2" y="10" width="28" height="4" fill="url(#scheduleGradient)"/>
  
  <!-- Calendar hooks -->
  <rect x="7" y="0" width="3" height="10" rx="1.5" fill="url(#scheduleGradient)"/>
  <rect x="22" y="0" width="3" height="10" rx="1.5" fill="url(#scheduleGradient)"/>
  
  <!-- Calendar grid dots -->
  <g fill="#F97316" opacity="0.8">
    <circle cx="8" cy="18" r="1.5"/>
    <circle cx="13" cy="18" r="1.5"/>
    <circle cx="18" cy="18" r="1.5"/>
    <circle cx="23" cy="18" r="1.5"/>
    <circle cx="8" cy="23" r="1.5"/>
    <circle cx="13" cy="23" r="1.5"/>
    <circle cx="18" cy="23" r="1.5"/>
    <circle cx="23" cy="23" r="1.5"/>
    <circle cx="8" cy="28" r="1.5"/>
    <circle cx="13" cy="28" r="1.5"/>
    <circle cx="18" cy="28" r="1.5"/>
    <circle cx="23" cy="28" r="1.5"/>
  </g>
  
  <!-- Highlighted date -->
  <circle cx="18" cy="23" r="3" fill="none" stroke="url(#scheduleGradient)" stroke-width="2"/>
  
  <!-- Clock indicator -->
  <g transform="translate(24, 24)">
    <circle cx="3" cy="3" r="2.5" fill="url(#scheduleGradient)" stroke="#0A0A0A" stroke-width="1"/>
    <line x1="3" y1="3" x2="3" y2="1.5" stroke="#0A0A0A" stroke-width="1"/>
    <line x1="3" y1="3" x2="4" y2="3" stroke="#0A0A0A" stroke-width="1"/>
  </g>
</svg>
